<svg width="235" height="41" viewBox="0 0 235 41" fill="none" xmlns="http://www.w3.org/2000/svg">
<g clip-path="url(#clip0_553_2293)">
<path d="M6.073 3.03639C6.073 4.71335 4.714 6.07278 3.037 6.07278C1.36 6.07278 0 4.71335 0 3.03639C0 1.35944 1.36 0 3.037 0C4.714 0 6.073 1.35944 6.073 3.03639Z" fill="#222222"/>
<path fill-rule="evenodd" clip-rule="evenodd" d="M40.5043 40.0686C37.0085 40.0686 33.9352 39.3695 31.2843 37.9712C28.6624 36.5438 26.6087 34.5629 25.1231 32.0285C24.8838 31.6073 24.6641 31.1747 24.4641 30.7307L23.2902 39.4568H0V39.02H0.0437369C1.09241 39.02 1.93722 38.7431 2.57808 38.1897C3.21894 37.6362 3.53937 36.8352 3.53937 35.7864V10.6172C3.53937 9.56857 3.21894 8.72367 2.57808 8.08281C1.93722 7.44195 1.09241 7.12152 0.0437369 7.12152H0V6.68452H13.9392V7.12152H13.7644C12.7156 7.12152 11.8708 7.44195 11.23 8.08281C10.5891 8.72367 10.2687 9.56857 10.2687 10.6172V35.9612C10.2687 36.8934 10.4872 37.6217 10.9241 38.146C11.3902 38.6412 12.1913 38.8888 13.3274 38.8888H14.245C16.8377 38.8888 19.0225 38.0878 20.7995 36.4855C22.5327 34.9228 23.6423 32.7367 24.1284 29.9271C23.3349 27.8717 22.9383 25.5862 22.9383 23.0708C22.9383 19.6624 23.6665 16.6911 25.1231 14.1566C26.6087 11.5931 28.6624 9.61212 31.2843 8.21383C33.9352 6.78645 37.0085 6.07275 40.5043 6.07275C43.9158 6.07275 46.911 6.75253 49.4902 8.1119C52.2413 6.75253 55.4363 6.07275 59.0753 6.07275C60.2114 6.07275 61.1435 6.11649 61.8718 6.20378C62.6292 6.26216 63.2993 6.33499 63.8818 6.42228C64.4645 6.50975 65.1054 6.59704 65.8045 6.68452C66.5328 6.74271 67.4359 6.77181 68.5137 6.77181L69.8246 15.5113H69.3876C68.8632 12.7438 67.6835 10.5735 65.8483 9.00036C64.0421 7.42731 61.7844 6.64078 59.0753 6.64078C57.4148 6.64078 55.9 7.03404 54.5308 7.82057C53.6289 8.33874 52.8154 8.98961 52.0905 9.77336C51.7531 10.1379 51.4349 10.5314 51.1359 10.9536C51.1022 11.0012 51.0686 11.0492 51.0354 11.0977C50.7543 11.5149 50.4907 11.9571 50.2445 12.4243C49.9205 13.039 49.6266 13.6977 49.3631 14.3986C49.254 14.6879 49.1502 14.9848 49.0516 15.2891C48.9499 15.6029 48.8536 15.9246 48.7629 16.2541C48.2385 18.2641 47.9764 20.4927 47.9764 22.9396C47.9764 25.1952 48.1818 27.2694 48.5928 29.1625L47.8983 31.225C47.5349 32.3043 47.0999 33.2486 46.6001 34.0666C46.2925 34.552 45.9668 34.9878 45.6244 35.3768L45.5917 35.4141C44.5101 34.4289 43.5862 33.3004 42.8202 32.0285C41.2762 29.4649 40.5043 26.4498 40.5043 22.9833C40.5043 19.6041 41.2762 16.6474 42.8202 14.113C43.8743 12.3824 45.2138 10.9169 46.8384 9.71606C46.1817 8.95384 45.4541 8.32206 44.6554 7.82057C43.4028 7.03404 42.019 6.64078 40.5043 6.64078C38.9894 6.64078 37.6057 7.03404 36.353 7.82057C35.1004 8.6071 34.0372 9.71406 33.1632 11.1417C32.2602 12.5691 31.561 14.3022 31.0658 16.3414C30.5997 18.3514 30.3666 20.58 30.3666 23.027C30.3666 25.4741 30.5997 27.7025 31.0658 29.7125C31.561 31.7226 32.2602 33.4413 33.1632 34.8687C34.0372 36.2963 35.1004 37.4032 36.353 38.1897C37.6057 38.9763 38.9894 39.3695 40.5043 39.3695C42.019 39.3695 43.4028 38.9763 44.6554 38.1897C45.908 37.4032 46.9859 36.2963 47.8889 34.8687C48.7629 33.4413 49.4328 31.7226 49.8989 29.7125C50.3942 27.7025 50.6418 25.4741 50.6418 23.027C50.6418 20.8146 50.4394 18.7807 50.0345 16.9255L50.7842 14.9322C51.2109 13.7976 51.7152 12.8072 52.2906 11.9517C52.4443 11.7284 52.6031 11.5153 52.7669 11.312C52.9092 11.1352 53.0553 10.966 53.2052 10.804L53.238 10.7764C54.2524 11.7603 55.1202 12.8869 55.8417 14.1566C57.3274 16.6911 58.0702 19.6624 58.0702 23.0708C58.0702 26.4791 57.3274 29.4649 55.8417 32.0285C54.8542 33.7467 53.5922 35.2106 52.0557 36.4201C52.7008 37.1261 53.4093 37.716 54.1813 38.1897C55.4922 38.9763 56.9487 39.3695 58.5509 39.3695C59.7453 39.3695 60.8814 39.1657 61.9593 38.7578C63.0662 38.3499 63.911 37.8402 64.4936 37.2284V26.0859C64.4936 25.0371 64.1732 24.1922 63.5323 23.5513C62.8914 22.9105 62.0466 22.59 60.9979 22.59H60.8669V22.153H72.7928C72.9131 19.1263 73.6353 16.4609 74.9597 14.1566C76.4453 11.5931 78.4991 9.61212 81.1208 8.21383C83.7718 6.78645 86.8451 6.07275 90.3409 6.07275C93.8365 6.07275 96.8953 6.78645 99.517 8.21383C102.168 9.61212 104.222 11.5931 105.679 14.1566C106.636 15.7895 107.285 17.6038 107.625 19.5994V10.6172C107.625 9.56857 107.305 8.72367 106.664 8.08281C106.023 7.44195 105.178 7.12152 104.129 7.12152H104.086V6.68452H130.377C132.62 6.71361 134.572 7.10688 136.232 7.86431C137.922 8.59264 139.232 9.61212 140.165 10.9232C140.516 11.4015 140.802 11.9111 141.025 12.4517C141.383 10.7642 142.253 9.38065 143.634 8.30131C145.528 6.81554 148.019 6.07275 151.106 6.07275C151.864 6.07275 152.476 6.10185 152.942 6.16023C153.139 6.18339 153.331 6.20878 153.519 6.23658C153.803 6.27865 154.077 6.32591 154.34 6.37854C154.806 6.46602 155.345 6.53885 155.957 6.59704C156.569 6.65542 157.355 6.68452 158.316 6.68452H172.12V7.12152H171.989C170.94 7.12152 170.096 7.44195 169.455 8.08281C168.814 8.72367 168.493 9.56857 168.493 10.6172V27.9647C168.493 31.0526 169.28 33.4997 170.853 35.3057C172.455 37.0828 174.611 37.9712 177.32 37.9712C180.058 37.9712 182.214 37.0681 183.787 35.2621C185.36 33.4268 186.147 30.9944 186.147 27.9647V11.2727C186.147 10.0201 185.768 9.02964 185.011 8.30131C184.253 7.57297 183.248 7.17971 181.996 7.12152V6.68452H196.417L207.079 31.373L217.741 6.68452H225.912V7.12152C224.98 7.12152 224.193 7.39821 223.552 7.95178C222.911 8.50517 222.62 9.2626 222.678 10.2239L224.907 36.0922C225.052 37.0828 225.518 37.8256 226.305 38.3208C227.121 38.816 227.922 39.0636 228.708 39.0636V39.4568H215.162V39.0636C215.658 39.0636 216.167 38.9472 216.692 38.714C217.216 38.4811 217.639 38.146 217.959 37.709C218.309 37.272 218.44 36.7623 218.352 36.1797L216.211 12.0592L204.064 40.0686L191.829 12.0155L189.775 34.9999C189.658 36.165 189.993 37.1119 190.78 37.8402C191.566 38.5684 192.528 38.9616 193.664 39.02V39.4568H184.925V39.02C186.031 38.9616 186.964 38.5539 187.721 37.7965C188.479 37.039 188.915 36.0922 189.032 34.9562L191.217 10.792C190.663 9.65586 189.964 8.76741 189.119 8.12655C188.975 8.00812 188.824 7.90026 188.664 7.80278C188.435 7.94659 188.222 8.11265 188.026 8.30131C187.268 9.02964 186.89 10.0201 186.89 11.2727V27.9647C186.89 30.4118 186.38 32.5384 185.36 34.3444C184.37 36.1506 182.928 37.5633 181.034 38.583C179.17 39.5734 176.941 40.0686 174.349 40.0686C171.785 40.0686 169.557 39.5734 167.663 38.583C165.77 37.5924 164.298 36.1941 163.25 34.3881C162.23 32.5528 161.72 30.4118 161.72 27.9647V10.6172C161.72 9.56857 161.4 8.72367 160.759 8.08281C160.141 7.46511 159.334 7.14524 158.338 7.12282L158.753 15.5113H158.316C157.909 12.802 157.035 10.6609 155.695 9.08784C154.354 7.51478 152.738 6.72825 150.844 6.72825C149.504 6.72825 148.426 7.12152 147.611 7.90804C146.824 8.69457 146.431 9.74336 146.431 11.0542C146.431 12.1902 146.795 13.2827 147.523 14.3315C148.281 15.351 149.577 16.5454 151.412 17.9146L153.291 19.3129C155.214 20.7112 156.729 22.0074 157.836 23.2018C158.972 24.367 159.787 25.5032 160.283 26.6101C160.778 27.7171 161.026 28.8969 161.026 30.1495C161.026 32.0721 160.545 33.7764 159.583 35.2619C158.622 36.7477 157.282 37.9129 155.563 38.7578C153.874 39.5734 151.878 40.0104 149.577 40.0686C148.82 40.0686 148.193 40.0395 147.698 39.9813C147.232 39.9229 146.766 39.8501 146.3 39.7628C145.834 39.6753 145.266 39.6025 144.596 39.5443C143.926 39.4861 143.008 39.4568 141.843 39.4568L140.313 28.0957H140.838C141.275 31.6788 142.265 34.4463 143.809 36.3982C145.382 38.3208 147.392 39.2821 149.839 39.2821C151.645 39.2821 153.116 38.7724 154.253 37.7527C155.389 36.7331 155.957 35.4076 155.957 33.7764C155.957 33.0771 155.826 32.4072 155.563 31.7663C155.33 31.1255 154.923 30.4409 154.34 29.7125C153.757 28.9844 152.985 28.1978 152.024 27.3529C151.063 26.4791 149.868 25.5032 148.441 24.4253L146.649 23.0708C144.465 21.4103 142.95 19.9245 142.105 18.6137C141.838 18.1997 141.613 17.774 141.431 17.3366C141.212 18.3937 140.79 19.3583 140.165 20.2305C139.232 21.5413 137.892 22.5756 136.145 23.3328C134.426 24.0612 132.387 24.4253 130.027 24.4253H126.007V35.5242C126.007 36.5729 126.327 37.4177 126.968 38.0585C127.609 38.6996 128.454 39.02 129.503 39.02H129.59V39.4568H104.086V39.02H104.129C105.178 39.02 106.023 38.6996 106.664 38.0585C107.305 37.4177 107.625 36.5729 107.625 35.5242V26.5477C107.285 28.55 106.636 30.3769 105.679 32.0285C104.222 34.5629 102.168 36.5438 99.517 37.9712C96.8953 39.3695 93.8365 40.0686 90.3409 40.0686C86.8451 40.0686 83.7718 39.3695 81.1208 37.9712C78.4991 36.5438 76.4453 34.5629 74.9597 32.0285C73.5091 29.4755 72.7808 26.5038 72.7748 23.1128C72.5785 23.237 72.3961 23.3831 72.2279 23.5513C71.587 24.1922 71.2666 25.0371 71.2666 26.0859V37.2284C70.684 37.8109 69.7518 38.3208 68.47 38.7578C67.2174 39.1657 65.79 39.4861 64.1877 39.7191C62.6147 39.9522 61.0416 40.0686 59.4686 40.0686C55.666 40.0686 52.3545 39.3953 49.5341 38.0483C46.945 39.3953 43.935 40.0686 40.5043 40.0686ZM94.492 38.1897C93.2394 38.9763 91.8556 39.3695 90.3409 39.3695C88.826 39.3695 87.4423 38.9763 86.1896 38.1897C84.937 37.4032 83.8738 36.2963 82.9998 34.8687C82.0968 33.4413 81.3976 31.7226 80.9023 29.7125C80.4363 27.7025 80.2032 25.4741 80.2032 23.027C80.2032 20.58 80.4363 18.3514 80.9023 16.3414C81.3976 14.3022 82.0968 12.5691 82.9998 11.1417C83.8738 9.71406 84.937 8.6071 86.1896 7.82057C87.4423 7.03404 88.826 6.64078 90.3409 6.64078C91.8556 6.64078 93.2394 7.03404 94.492 7.82057C95.7446 8.6071 96.8225 9.71406 97.7255 11.1417C98.5995 12.5691 99.2694 14.3022 99.7355 16.3414C100.231 18.3514 100.479 20.58 100.479 23.027C100.479 25.4741 100.231 27.7025 99.7355 29.7125C99.2694 31.7226 98.5995 33.4413 97.7255 34.8687C96.8225 36.2963 95.7446 37.4032 94.492 38.1897ZM118.316 38.0585C117.907 38.4681 117.414 38.7468 116.838 38.8947C116.262 38.7468 115.769 38.4681 115.359 38.0585C114.719 37.4177 114.398 36.5729 114.398 35.5242V10.6172C114.398 9.56857 114.719 8.72367 115.359 8.08281C115.769 7.67324 116.262 7.3945 116.838 7.2468C117.414 7.3945 117.907 7.67324 118.316 8.08281C118.957 8.72367 119.278 9.56857 119.278 10.6172V35.5242C119.278 36.5729 118.957 37.4177 118.316 38.0585ZM128.585 23.8573H126.007V7.25254H128.541C129.794 7.25254 130.886 7.61671 131.819 8.34505C132.751 9.0441 133.465 10.0201 133.96 11.2727C134.484 12.5253 134.746 13.9527 134.746 15.5549C134.746 17.1572 134.484 18.5846 133.96 19.8372C133.465 21.0898 132.751 22.0802 131.819 22.8085C130.916 23.5078 129.838 23.8573 128.585 23.8573Z" fill="#222222"/>
<path d="M90.4127 12.4531C90.4127 19.8995 90.4127 22.8391 80.3047 22.8391C90.4127 22.8391 90.4127 25.7786 90.4127 33.2251C90.4127 25.8228 90.4127 22.8391 100.362 22.8391C90.4127 22.8391 90.4127 19.8554 90.4127 12.4531Z" fill="#222222"/>
</g>
<defs>
<clipPath id="clip0_553_2293">
<rect width="235" height="40.0686" fill="white"/>
</clipPath>
</defs>
</svg>
