<svg width="218" height="42" viewBox="0 0 218 42" fill="none" xmlns="http://www.w3.org/2000/svg">
<path fill-rule="evenodd" clip-rule="evenodd" d="M21 40C32.0457 40 41 31.0457 41 20C41 8.95431 32.0457 0 21 0C9.95429 0 1 8.95431 1 20C1 31.0457 9.95429 40 21 40ZM27.2393 9.31684C27.543 8.23805 26.4961 7.60013 25.54 8.2813L12.1931 17.7896C11.1562 18.5283 11.3193 20 12.4381 20H15.9527V19.9728H22.8025L17.2212 21.9421L14.7607 30.6832C14.457 31.762 15.5038 32.3999 16.46 31.7187L29.8069 22.2105C30.8438 21.4718 30.6806 20 29.5619 20H24.2321L27.2393 9.31684Z" fill="#222222"/>
<path d="M52.952 33V11.24H58.072V28.84H67.64V33H52.952ZM77.8135 33.512C72.5975 33.512 69.3655 30.056 69.3655 24.392C69.3655 18.536 72.6935 15.24 77.8135 15.24C83.0295 15.24 86.2935 18.76 86.2935 24.392C86.2935 30.216 82.9335 33.512 77.8135 33.512ZM77.8135 29.544C80.0855 29.544 81.2695 27.752 81.2695 24.392C81.2695 21.064 80.0535 19.208 77.8135 19.208C75.5735 19.208 74.3895 21.032 74.3895 24.392C74.3895 27.72 75.6055 29.544 77.8135 29.544ZM95.2188 33.032C90.8668 33.032 88.1468 29.64 88.1468 24.168C88.1468 18.44 90.9308 15.24 95.2188 15.24C97.1388 15.24 98.6428 15.976 99.6988 17.384V15.784H104.595V33.576C104.595 38.184 101.331 40.584 96.8188 40.584C92.4348 40.584 89.2668 38.664 88.6588 34.472H93.5548C93.7468 36.008 95.0588 36.84 96.7548 36.84C98.5148 36.84 99.6988 36.04 99.6988 33.64V30.76C98.6108 32.264 97.0748 33.032 95.2188 33.032ZM96.4028 29.064C98.5788 29.064 99.6988 27.336 99.6988 24.136C99.6988 20.968 98.5468 19.208 96.4028 19.208C94.2908 19.208 93.1708 20.936 93.1708 24.168C93.1708 27.304 94.2908 29.064 96.4028 29.064ZM115.626 33.512C110.41 33.512 107.178 30.056 107.178 24.392C107.178 18.536 110.506 15.24 115.626 15.24C120.842 15.24 124.106 18.76 124.106 24.392C124.106 30.216 120.746 33.512 115.626 33.512ZM115.626 29.544C117.898 29.544 119.082 27.752 119.082 24.392C119.082 21.064 117.866 19.208 115.626 19.208C113.386 19.208 112.202 21.032 112.202 24.392C112.202 27.72 113.418 29.544 115.626 29.544ZM126.695 14.056V9.96H131.591V14.056H126.695ZM126.695 33V15.784H131.591V33H126.695ZM139.779 40.072H134.883V15.784H139.779V17.576C140.835 16.072 142.307 15.24 144.099 15.24C148.547 15.24 151.331 18.728 151.331 24.36C151.331 30.216 148.483 33.512 144.099 33.512C142.275 33.512 140.803 32.744 139.779 31.272V40.072ZM143.075 19.208C140.899 19.208 139.779 21.032 139.779 24.36C139.779 27.688 140.931 29.544 143.075 29.544C145.187 29.544 146.307 27.72 146.307 24.36C146.307 21.032 145.155 19.208 143.075 19.208ZM158.17 20.552C158.17 23.944 168.826 20.968 168.826 27.784C168.826 31.176 165.69 33.512 161.21 33.512C156.858 33.512 153.722 31.592 153.082 27.336H157.978C158.202 28.936 159.514 29.8 161.338 29.8C163.066 29.8 163.93 29.128 163.93 28.072C163.93 24.744 153.498 27.72 153.498 20.808C153.498 17.928 155.834 15.24 160.442 15.24C164.57 15.24 167.706 17.128 168.186 21.48H163.322C163.034 19.72 162.01 18.984 160.282 18.984C159.002 18.984 158.17 19.624 158.17 20.552ZM181.849 25.672V15.784H186.745V33H181.849V30.696C180.729 32.616 179.033 33.512 176.953 33.512C173.689 33.512 171.289 31.528 171.289 27.24V15.784H176.185V26.248C176.185 28.456 177.017 29.544 178.745 29.544C180.633 29.544 181.849 27.88 181.849 25.672ZM190.07 33V15.784H194.966V17.96C196.054 16.104 197.686 15.24 199.67 15.24C201.718 15.24 203.446 16.168 204.31 18.088C205.494 16.136 207.318 15.24 209.462 15.24C212.662 15.24 215.03 17.256 215.03 21.512V33H210.134V22.504C210.134 20.328 209.398 19.208 207.83 19.208C206.134 19.208 204.982 20.904 204.982 23.112V33H200.118V22.504C200.118 20.328 199.35 19.208 197.782 19.208C196.086 19.208 194.966 20.904 194.966 23.112V33H190.07Z" fill="#222222"/>
</svg>
