<svg width="105" height="30" viewBox="0 0 105 30" fill="none" xmlns="http://www.w3.org/2000/svg">
<g clip-path="url(#clip0_553_2290)">
<path d="M18.5147 0C15.4686 0 12.5473 1.21005 10.3934 3.36396L3.36396 10.3934C1.21005 12.5473 0 15.4686 0 18.5147C0 24.8579 5.14214 30 11.4853 30C14.5314 30 17.4527 28.7899 19.6066 26.636L24.4689 21.7737C24.4689 21.7736 24.469 21.7738 24.4689 21.7737L38.636 7.6066C39.6647 6.57791 41.0599 6 42.5147 6C44.9503 6 47.0152 7.58741 47.7311 9.78407L52.2022 5.31296C50.1625 2.11834 46.586 0 42.5147 0C39.4686 0 36.5473 1.21005 34.3934 3.36396L15.364 22.3934C14.3353 23.4221 12.9401 24 11.4853 24C8.45584 24 6 21.5442 6 18.5147C6 17.0599 6.57791 15.6647 7.6066 14.636L14.636 7.6066C15.6647 6.57791 17.0599 6 18.5147 6C20.9504 6 23.0152 7.58748 23.7311 9.78421L28.2023 5.31307C26.1626 2.1184 22.5861 0 18.5147 0Z" fill="#222222"/>
<path d="M65.7679 22.3934C64.7392 23.4221 63.344 24 61.8892 24C59.4539 24 57.3892 22.413 56.6731 20.2167L52.2021 24.6877C54.2419 27.8819 57.8182 30 61.8892 30C64.9353 30 67.8566 28.7899 70.0105 26.636L89.0399 7.6066C90.0686 6.57791 91.4638 6 92.9186 6C95.9481 6 98.4039 8.45584 98.4039 11.4853C98.4039 12.9401 97.826 14.3353 96.7973 15.364L89.7679 22.3934C88.7392 23.4221 87.344 24 85.8892 24C83.4537 24 81.3889 22.4127 80.6729 20.2162L76.2019 24.6873C78.2416 27.8818 81.818 30 85.8892 30C88.9353 30 91.8566 28.7899 94.0105 26.636L101.04 19.6066C103.194 17.4527 104.404 14.5314 104.404 11.4853C104.404 5.14214 99.2618 0 92.9186 0C89.8725 0 86.9512 1.21005 84.7973 3.36396L65.7679 22.3934Z" fill="#222222"/>
</g>
<defs>
<clipPath id="clip0_553_2290">
<rect width="104.404" height="30" fill="white"/>
</clipPath>
</defs>
</svg>
