<svg width="190" height="40" viewBox="0 0 190 40" fill="none" xmlns="http://www.w3.org/2000/svg">
<g clip-path="url(#clip0_553_2277)">
<path fill-rule="evenodd" clip-rule="evenodd" d="M15.582 4.65118L12.8974 0L5.28261 4.39657L7.96822 9.04674C8.43873 9.8625 7.73398 10.8545 6.80822 10.6762L1.6631 9.68326L0 18.3165L5.1441 19.3085C13.4678 20.9135 19.8218 11.992 15.583 4.65118H15.582Z" fill="#222222"/>
<path fill-rule="evenodd" clip-rule="evenodd" d="M20.322 4.65118L23.0076 0L30.6214 4.39657L27.9368 9.04674C27.4653 9.8625 28.171 10.8545 29.0958 10.6762L34.2409 9.68326L35.906 18.3165L30.7609 19.3085C22.4383 20.9135 16.0843 11.992 20.322 4.65118Z" fill="#222222"/>
<path fill-rule="evenodd" clip-rule="evenodd" d="M15.5841 35.3444L12.8984 39.9956L5.28363 35.6L7.96923 30.9488C8.44077 30.1331 7.735 29.1411 6.80924 29.3193L1.66514 30.3113L0 21.6791L5.14512 20.6871C13.4678 19.0821 19.8207 28.0035 15.5841 35.3444Z" fill="#222222"/>
<path fill-rule="evenodd" clip-rule="evenodd" d="M20.3236 35.3444L23.0072 39.9956L30.622 35.6L27.9364 30.9488C27.4659 30.1331 28.1706 29.1411 29.0964 29.3193L34.2405 30.3113L35.9056 21.6791L30.7605 20.6871C22.4379 19.0821 16.0849 28.0035 20.3216 35.3444H20.3236Z" fill="#222222"/>
<path d="M165.914 27.6686V19.012C165.914 17.8122 166.19 16.7358 166.742 15.7835C167.313 14.8119 168.123 14.0502 169.171 13.4971C170.219 12.9452 171.467 12.6692 172.914 12.6692C173.589 12.6626 174.262 12.7489 174.914 12.9258C175.524 13.0786 176.076 13.2975 176.571 13.5827C177.085 13.8495 177.523 14.1734 177.886 14.5543H177.943C178.331 14.1679 178.773 13.8406 179.257 13.5827C179.787 13.2906 180.354 13.0697 180.943 12.9258C181.605 12.7502 182.287 12.6639 182.972 12.6692C184.419 12.6692 185.667 12.9441 186.714 13.4971C187.761 14.0502 188.571 14.8109 189.142 15.7835C189.715 16.7358 190 17.8112 190 19.012V27.6686H185.542V19.1545C185.542 18.6789 185.419 18.2502 185.172 17.8693C184.944 17.4709 184.62 17.1366 184.229 16.8977C183.816 16.6465 183.34 16.5176 182.857 16.526C182.342 16.526 181.876 16.6502 181.457 16.8977C181.066 17.1363 180.741 17.4706 180.514 17.8693C180.283 18.2577 180.164 18.7026 180.171 19.1545V27.6686H175.743V19.1545C175.743 18.6789 175.619 18.2502 175.371 17.8693C175.139 17.4651 174.804 17.1298 174.4 16.8977C173.987 16.6465 173.511 16.5176 173.028 16.526C172.513 16.526 172.047 16.6502 171.628 16.8977C171.237 17.1363 170.912 17.4706 170.685 17.8693C170.455 18.2579 170.336 18.7027 170.342 19.1545V27.6686H165.914ZM156.228 28.0118C154.723 28.0118 153.418 27.7267 152.314 27.1543C151.228 26.5636 150.39 25.7733 149.799 24.7834C149.209 23.7742 148.913 22.659 148.913 21.4399V13.0114H153.342V21.3258C153.342 21.8401 153.466 22.3168 153.713 22.7547C153.961 23.1733 154.295 23.5165 154.713 23.7833C155.151 24.0308 155.647 24.155 156.199 24.155C156.733 24.155 157.208 24.0308 157.628 23.7833C158.066 23.5165 158.409 23.1733 158.657 22.7547C158.904 22.3168 159.028 21.8401 159.028 21.3258V13.0114H163.457V21.4399C163.457 22.659 163.17 23.7742 162.599 24.7834C162.028 25.7733 161.2 26.5647 160.114 27.1543C159.047 27.7257 157.751 28.0118 156.228 28.0118ZM134.648 27.6686V24.155H141.706C141.896 24.155 142.067 24.1163 142.22 24.04C142.372 23.9452 142.496 23.821 142.591 23.6693C142.684 23.5192 142.734 23.3459 142.734 23.1692C142.734 22.9925 142.684 22.8193 142.591 22.6692C142.502 22.5223 142.373 22.4034 142.22 22.3259C142.066 22.2303 141.887 22.1808 141.706 22.1834H139.134C138.181 22.1834 137.314 22.0306 136.534 21.7261C135.793 21.4191 135.157 20.9027 134.705 20.2402C134.267 19.5548 134.048 18.6687 134.048 17.5831C134.048 16.7449 134.248 15.9831 134.648 15.2977C135.065 14.6144 135.644 14.0448 136.334 13.6397C137.054 13.2218 137.873 13.0048 138.706 13.0114H145.762V16.5545H139.391C139.138 16.5494 138.893 16.6416 138.706 16.8121C138.622 16.8938 138.556 16.9916 138.512 17.0997C138.467 17.2078 138.446 17.3237 138.448 17.4405C138.448 17.7073 138.534 17.9355 138.706 18.1259C138.893 18.2964 139.138 18.3887 139.391 18.3836H141.905C142.972 18.3836 143.886 18.5455 144.648 18.8684C145.429 19.1739 146.029 19.6688 146.449 20.3553C146.887 21.0407 147.106 21.9257 147.106 23.0113C147.106 23.8689 146.887 24.65 146.449 25.3537C146.033 26.0552 145.442 26.6364 144.734 27.0403C144.029 27.4599 143.229 27.6686 142.334 27.6686H134.648ZM125 12.6692C126.238 12.6692 127.333 12.8688 128.285 13.269C129.22 13.6256 130.061 14.1926 130.742 14.926C131.437 15.6446 131.972 16.5014 132.314 17.4405C132.675 18.3928 132.857 19.4499 132.857 20.6119C132.857 22.0591 132.552 23.3454 131.942 24.4687C131.379 25.5453 130.529 26.4451 129.486 27.0688C128.438 27.6972 127.219 28.0118 125.829 28.0118C125.238 28.0118 124.676 27.9355 124.142 27.7837C123.637 27.6351 123.156 27.4135 122.714 27.1258C122.298 26.8435 121.939 26.4848 121.657 26.0687H121.57V33.8699H117.142V20.6109C117.142 18.9916 117.466 17.5912 118.114 16.4109C118.742 15.249 119.695 14.2955 120.857 13.6672C122.038 13.0012 123.419 12.6681 125 12.6681V12.6692ZM125 16.4974C124.314 16.4974 123.714 16.6685 123.2 17.0118C122.704 17.3356 122.323 17.7929 122.056 18.3836C121.79 18.9539 121.657 19.6027 121.657 20.3257C121.657 21.0498 121.79 21.6976 122.056 22.2689C122.323 22.8402 122.704 23.2975 123.2 23.6407C123.714 23.9646 124.314 24.1265 125 24.1265C125.685 24.1265 126.276 23.9636 126.771 23.6407C127.269 23.2951 127.664 22.821 127.914 22.2689C128.199 21.6976 128.342 21.0498 128.342 20.3257C128.342 19.6027 128.199 18.9549 127.914 18.3836C127.647 17.7929 127.267 17.3346 126.771 17.0118C126.276 16.6685 125.685 16.4974 125 16.4974ZM110.412 27.6686V13.0114H114.87V27.6686H110.412ZM112.641 11.3544C111.936 11.3544 111.327 11.0977 110.813 10.5834C110.298 10.0691 110.041 9.45906 110.041 8.75431C110.041 8.04955 110.298 7.44053 110.813 6.92622C111.327 6.39256 111.936 6.12573 112.641 6.12573C113.346 6.12573 113.956 6.39256 114.47 6.92622C114.984 7.44053 115.241 8.04955 115.241 8.75431C115.241 9.45906 114.984 10.0681 114.47 10.5834C113.956 11.0977 113.346 11.3544 112.641 11.3544ZM100.725 28.0118C99.2209 28.0118 97.8685 27.6788 96.6677 27.0117C95.4898 26.3661 94.5041 25.4197 93.811 24.2691C93.1256 23.1071 92.7824 21.8025 92.7824 20.3543C92.7824 18.8877 93.1256 17.5831 93.811 16.4404C94.5041 15.2898 95.4898 14.3435 96.6677 13.6978C97.8685 13.0114 99.2209 12.6692 100.725 12.6692C102.23 12.6692 103.573 13.0114 104.754 13.6978C105.928 14.339 106.905 15.2869 107.582 16.4404C108.287 17.5831 108.639 18.8877 108.639 20.3543C108.639 21.8025 108.287 23.1071 107.582 24.2691C106.905 25.4226 105.928 26.3706 104.754 27.0117C103.554 27.6788 102.211 28.0118 100.725 28.0118ZM100.725 24.155C101.43 24.155 102.04 23.9829 102.554 23.6407C103.069 23.2979 103.483 22.8244 103.754 22.2689C104.04 21.6976 104.183 21.0498 104.183 20.3257C104.183 19.621 104.04 18.9834 103.754 18.4111C103.483 17.8559 103.069 17.3828 102.554 17.0403C102.04 16.6971 101.43 16.526 100.725 16.526C100.02 16.526 99.4012 16.6971 98.8686 17.0403C98.3539 17.3831 97.9395 17.8565 97.6678 18.4121C97.3768 19.0079 97.2303 19.6638 97.2401 20.3268C97.2401 21.0498 97.3827 21.6976 97.6678 22.2689C97.9396 22.8244 98.3539 23.2978 98.8686 23.6407C99.4012 23.9829 100.02 24.155 100.725 24.155ZM78.3899 33.4696V29.6688H85.7033C85.9895 29.6688 86.2278 29.5741 86.4182 29.3837C86.5111 29.3016 86.5847 29.2002 86.634 29.0865C86.6833 28.9728 86.707 28.8496 86.7034 28.7258V25.4973H86.6178C86.2561 25.9181 85.8435 26.2923 85.3896 26.6115C84.97 26.917 84.4934 27.1452 83.9607 27.2979C83.3939 27.4572 82.807 27.534 82.2182 27.5261C80.9228 27.5261 79.7607 27.2205 78.7321 26.6115C77.7229 25.9831 76.9224 25.1164 76.3317 24.0114C75.7613 22.9075 75.4752 21.6497 75.4752 20.2402C75.4752 18.85 75.7705 17.5831 76.3612 16.4404C76.9702 15.2977 77.8563 14.3832 79.0183 13.6978C80.1793 13.0114 81.599 12.6692 83.2753 12.6692C84.8753 12.6692 86.2563 13.0022 87.4183 13.6693C88.5852 14.3026 89.5393 15.2663 90.161 16.4394C90.8087 17.6208 91.1325 19.012 91.1325 20.6119V29.183C91.1325 30.4968 90.7425 31.5356 89.9614 32.2974C89.1996 33.0786 88.1424 33.4686 86.79 33.4686L78.3899 33.4696ZM83.3039 23.8118C83.9893 23.8118 84.58 23.6591 85.0759 23.3546C85.5653 23.0368 85.9598 22.5927 86.2176 22.0693C86.4885 21.5183 86.6256 20.9112 86.6178 20.2972C86.6178 19.6118 86.4854 18.9834 86.2186 18.4121C85.9518 17.8408 85.5709 17.3927 85.0749 17.0688C84.58 16.7256 83.9893 16.5545 83.3028 16.5545C82.6368 16.5545 82.0461 16.7164 81.5318 17.0403C81.0368 17.3641 80.6559 17.8021 80.3891 18.3541C80.1233 18.9071 79.9899 19.5252 79.9899 20.2117C79.9899 20.8787 80.1223 21.4878 80.3891 22.0408C80.6559 22.5734 81.0368 23.0022 81.5328 23.326C82.0461 23.6499 82.6368 23.8118 83.3039 23.8118ZM66.4732 28.0118C64.969 28.0118 63.6165 27.6788 62.4168 27.0117C61.2385 26.3663 60.2524 25.4199 59.5591 24.2691C58.8737 23.1071 58.5305 21.8025 58.5305 20.3543C58.5305 18.8877 58.8737 17.5831 59.5591 16.4404C60.2524 15.2896 61.2385 14.3432 62.4168 13.6978C63.6165 13.0114 64.969 12.6692 66.4732 12.6692C67.9785 12.6692 69.3208 13.0114 70.5022 13.6978C71.6758 14.3391 72.6533 15.287 73.3304 16.4404C74.0351 17.5831 74.3875 18.8877 74.3875 20.3543C74.3875 21.8025 74.0351 23.1071 73.3304 24.2691C72.6533 25.4225 71.6758 26.3705 70.5022 27.0117C69.3025 27.6788 67.9591 28.0118 66.4732 28.0118ZM66.4732 24.155C67.178 24.155 67.787 23.9829 68.3023 23.6407C68.8166 23.2977 69.2306 22.8243 69.5021 22.2689C69.7872 21.6976 69.9298 21.0498 69.9298 20.3257C69.9298 19.621 69.7872 18.9834 69.5021 18.4111C69.2305 17.8561 68.8165 17.383 68.3023 17.0403C67.788 16.6971 67.178 16.526 66.4732 16.526C65.7685 16.526 65.1493 16.6971 64.6166 17.0403C64.102 17.3831 63.6876 17.8565 63.4159 18.4121C63.1249 19.0079 62.9784 19.6638 62.9882 20.3268C62.9882 21.0498 63.1307 21.6976 63.4159 22.2689C63.6877 22.8244 64.102 23.2978 64.6166 23.6407C65.1493 23.9829 65.7685 24.155 66.4732 24.155ZM52.2906 27.6686C51.0521 27.6686 49.9665 27.3937 49.0336 26.8407C48.1263 26.3146 47.3765 25.5549 46.8623 24.6408C46.348 23.7263 46.0903 22.716 46.0903 21.612V7.66866H50.8902V21.9542C50.8902 22.4125 51.0532 22.8117 51.376 23.1549C51.6999 23.4971 52.0991 23.6693 52.5757 23.6693H57.8614V27.6686H52.2906Z" fill="#222222"/>
</g>
<defs>
<clipPath id="clip0_553_2277">
<rect width="190" height="39.9955" fill="white"/>
</clipPath>
</defs>
</svg>
