<svg width="147" height="48" viewBox="0 0 147 48" fill="none" xmlns="http://www.w3.org/2000/svg">
<path d="M7.128 12.52L12.24 27.604L12.996 30.736L13.752 27.604L18.864 12.52H25.488L16.668 37H8.928L0.144 12.52H7.128ZM44.6363 30.592C43.6283 35.056 39.9203 37.648 34.9883 37.648C28.8683 37.648 25.0163 33.688 25.0163 27.28C25.0163 20.656 28.9043 16.876 34.7723 16.876C40.7483 16.876 44.4923 20.8 44.4923 27.208V28.576H31.4603C31.7483 31.276 32.9723 32.716 34.9883 32.716C36.5723 32.716 37.5443 32.068 38.0843 30.592H44.6363ZM34.7723 21.808C33.0443 21.808 31.9643 22.96 31.5683 25.156H38.0123C37.6163 22.96 36.5003 21.808 34.7723 21.808ZM47.0779 37V11.08H53.3059V37H47.0779ZM56.6052 15.832V11.08H62.8332V15.832H56.6052ZM56.6052 37V17.524H62.8332V37H56.6052ZM71.7126 23.032C71.7126 26.416 83.5566 23.392 83.5566 30.952C83.5566 34.876 79.9206 37.648 74.7006 37.648C69.6966 37.648 66.0246 35.452 65.3406 30.592H71.6046C71.7846 32.104 73.0806 32.932 74.8806 32.932C76.5006 32.932 77.3286 32.356 77.3286 31.348C77.3286 28.036 65.7726 31.096 65.7726 23.356C65.7726 20.008 68.4726 16.876 73.8366 16.876C78.6606 16.876 82.2966 19.108 82.8366 24.004H76.6446C76.3206 22.348 75.3486 21.592 73.6566 21.592C72.5046 21.592 71.7126 22.168 71.7126 23.032ZM91.5407 23.032C91.5407 26.416 103.385 23.392 103.385 30.952C103.385 34.876 99.7487 37.648 94.5287 37.648C89.5247 37.648 85.8527 35.452 85.1687 30.592H91.4327C91.6127 32.104 92.9087 32.932 94.7087 32.932C96.3287 32.932 97.1567 32.356 97.1567 31.348C97.1567 28.036 85.6007 31.096 85.6007 23.356C85.6007 20.008 88.3007 16.876 93.6647 16.876C98.4887 16.876 102.125 19.108 102.665 24.004H96.4727C96.1487 22.348 95.1767 21.592 93.4847 21.592C92.3327 21.592 91.5407 22.168 91.5407 23.032ZM124.617 30.592C123.609 35.056 119.901 37.648 114.969 37.648C108.849 37.648 104.997 33.688 104.997 27.28C104.997 20.656 108.885 16.876 114.753 16.876C120.729 16.876 124.473 20.8 124.473 27.208V28.576H111.441C111.729 31.276 112.953 32.716 114.969 32.716C116.553 32.716 117.525 32.068 118.065 30.592H124.617ZM114.753 21.808C113.025 21.808 111.945 22.96 111.549 25.156H117.993C117.597 22.96 116.481 21.808 114.753 21.808ZM135.986 30.268C130.442 30.268 126.41 26.344 126.41 21.088C126.41 15.76 130.442 11.872 135.986 11.872C141.53 11.872 145.562 15.76 145.562 21.088C145.562 26.344 141.53 30.268 135.986 30.268ZM135.986 28.324C140.162 28.324 143.222 25.264 143.222 21.088C143.222 16.984 140.162 13.816 135.986 13.816C131.81 13.816 128.75 16.984 128.75 21.088C128.75 25.3 131.81 28.324 135.986 28.324ZM131.846 25.768V15.976H136.454C139.082 15.976 140.63 17.272 140.63 19.288C140.63 20.296 140.27 21.016 139.658 21.484C139.91 21.772 140.09 22.132 140.198 22.564L140.918 25.768H137.138L136.742 23.392C136.634 22.78 136.49 22.672 136.022 22.672H135.446V25.768H131.846ZM136.274 18.784H135.446V20.188H136.238C136.85 20.188 137.138 19.972 137.138 19.504C137.138 19.108 136.85 18.784 136.274 18.784Z" fill="#222222"/>
</svg>
