<svg width="80" height="77" viewBox="0 0 80 77" fill="none" xmlns="http://www.w3.org/2000/svg">
<mask id="mask0_553_2700" style="mask-type:luminance" maskUnits="userSpaceOnUse" x="0" y="0" width="80" height="77">
<path d="M80 0H0V76.8627H80V0Z" fill="white"/>
</mask>
<g mask="url(#mask0_553_2700)">
<path d="M40 76.8627C62.0914 76.8627 80 59.6564 80 38.4314C80 17.2063 62.0914 0 40 0C17.9086 0 0 17.2063 0 38.4314C0 59.6564 17.9086 76.8627 40 76.8627Z" fill="#146EF5"/>
<path fill-rule="evenodd" clip-rule="evenodd" d="M66.8804 25.2148L51.5642 53.9846H37.178L43.5879 42.0612H43.3002C38.0122 48.6571 30.1223 52.9993 18.8804 53.9846V42.2263C18.8804 42.2263 26.0721 41.8181 30.2999 37.5472H18.8804V25.215H31.7146V35.358L32.0028 35.3569L37.2474 25.215H46.9537V35.2937L47.2415 35.2932L52.6829 25.2148H66.8804Z" fill="#F2F2F2"/>
</g>
</svg>
