<svg width="597" height="116" viewBox="0 0 597 116" fill="none" xmlns="http://www.w3.org/2000/svg">
<path d="M32.6561 112.883L7.03423e-05 9.26281H27.6321L48.9841 91.8448H49.4551L70.3361 9.26281H97.9681L65.3121 112.883H32.6561ZM133.663 115.081C125.813 115.081 119.219 113.982 113.881 111.784C108.648 109.481 104.409 106.393 101.164 102.521C97.9198 98.5435 95.5648 94.0428 94.0995 89.0188C92.7388 83.9948 92.0585 78.7091 92.0585 73.1618C92.0585 67.1958 92.7912 61.4915 94.2565 56.0488C95.8265 50.6061 98.1815 45.7915 101.321 41.6048C104.566 37.3135 108.7 33.9641 113.724 31.5568C118.853 29.0448 124.976 27.7888 132.093 27.7888C139.211 27.7888 145.281 29.0448 150.305 31.5568C155.434 33.9641 159.516 37.3658 162.551 41.7618C165.587 46.1578 167.523 51.2341 168.36 56.9908C169.302 62.7475 169.198 68.9751 168.046 75.6738L107.915 76.6158V62.7998L148.578 62.0148L145.281 70.0218C145.909 65.2071 145.805 61.1775 144.967 57.9328C144.235 54.5835 142.822 52.0715 140.728 50.3968C138.635 48.6175 135.757 47.7278 132.093 47.7278C128.221 47.7278 125.133 48.7221 122.83 50.7108C120.528 52.6995 118.905 55.5255 117.963 59.1888C117.021 62.7475 116.55 66.9865 116.55 71.9058C116.55 80.3838 117.963 86.5591 120.789 90.4318C123.615 94.3045 127.959 96.2408 133.82 96.2408C136.332 96.2408 138.426 95.9268 140.1 95.2988C141.775 94.6708 143.136 93.7811 144.182 92.6298C145.229 91.3738 145.962 89.9085 146.38 88.2338C146.799 86.4545 146.956 84.4658 146.851 82.2678L170.088 83.5238C170.401 86.9778 170.035 90.5365 168.988 94.1998C168.046 97.8631 166.215 101.265 163.493 104.405C160.772 107.545 156.952 110.109 152.032 112.098C147.218 114.086 141.095 115.081 133.663 115.081ZM178.889 112.883V2.98281H204.323V112.883H178.889ZM215.686 112.883V29.9868H241.12V112.883H215.686ZM228.246 24.0208C223.432 24.0208 219.716 23.0265 217.099 21.0378C214.587 18.9445 213.331 15.9615 213.331 12.0888C213.331 8.11148 214.587 5.12848 217.099 3.1398C219.716 1.04647 223.432 -0.000194013 228.246 -0.000194013C233.166 -0.000194013 236.881 1.04647 239.393 3.1398C242.01 5.23314 243.318 8.21614 243.318 12.0888C243.318 15.8568 242.01 18.7875 239.393 20.8808C236.881 22.9741 233.166 24.0208 228.246 24.0208ZM288.75 115.081C283.203 115.081 278.022 114.505 273.207 113.354C268.497 112.307 264.363 110.58 260.804 108.173C257.35 105.765 254.681 102.573 252.797 98.5958C251.018 94.5138 250.285 89.5945 250.599 83.8378L272.736 81.9538C272.945 85.4078 273.73 88.2861 275.091 90.5888C276.452 92.7868 278.336 94.4091 280.743 95.4558C283.15 96.5025 286.081 97.0258 289.535 97.0258C292.78 97.0258 295.553 96.5025 297.856 95.4558C300.263 94.3045 301.467 92.4205 301.467 89.8038C301.467 88.4431 301.048 87.3441 300.211 86.5068C299.374 85.5648 297.804 84.7275 295.501 83.9948C293.303 83.1575 290.058 82.2155 285.767 81.1688C280.429 79.8081 275.614 78.4475 271.323 77.0868C267.032 75.7261 263.368 74.1038 260.333 72.2198C257.298 70.3358 254.995 68.0331 253.425 65.3118C251.855 62.4858 251.07 59.0318 251.07 54.9498C251.07 49.1931 252.588 44.3261 255.623 40.3488C258.763 36.2668 263.054 33.1791 268.497 31.0858C273.94 28.8878 280.22 27.7888 287.337 27.7888C293.722 27.7888 299.688 28.7831 305.235 30.7718C310.782 32.7605 315.126 36.0051 318.266 40.5058C321.511 45.0065 322.714 50.9725 321.877 58.4038L300.211 60.4448C300.525 57.4095 300.106 54.8451 298.955 52.7518C297.804 50.5538 296.129 48.9315 293.931 47.8848C291.733 46.7335 289.064 46.1578 285.924 46.1578C282.365 46.1578 279.592 46.8381 277.603 48.1988C275.719 49.4548 274.777 51.0771 274.777 53.0658C274.777 54.6358 275.353 55.9965 276.504 57.1478C277.76 58.1945 279.644 59.1365 282.156 59.9738C284.773 60.7065 288.122 61.5438 292.204 62.4858C295.763 63.2185 299.478 64.1605 303.351 65.3118C307.224 66.4631 310.835 68.0331 314.184 70.0218C317.533 71.9058 320.255 74.4178 322.348 77.5578C324.441 80.6978 325.488 84.6751 325.488 89.4898C325.488 94.6185 324.075 99.1191 321.249 102.992C318.423 106.864 314.289 109.847 308.846 111.941C303.403 114.034 296.705 115.081 288.75 115.081ZM369.857 115.081C364.309 115.081 359.128 114.505 354.314 113.354C349.604 112.307 345.469 110.58 341.911 108.173C338.457 105.765 335.788 102.573 333.904 98.5958C332.124 94.5138 331.392 89.5945 331.706 83.8378L353.843 81.9538C354.052 85.4078 354.837 88.2861 356.198 90.5888C357.558 92.7868 359.442 94.4091 361.85 95.4558C364.257 96.5025 367.188 97.0258 370.642 97.0258C373.886 97.0258 376.66 96.5025 378.963 95.4558C381.37 94.3045 382.574 92.4205 382.574 89.8038C382.574 88.4431 382.155 87.3441 381.318 86.5068C380.48 85.5648 378.91 84.7275 376.608 83.9948C374.41 83.1575 371.165 82.2155 366.874 81.1688C361.536 79.8081 356.721 78.4475 352.43 77.0868C348.138 75.7261 344.475 74.1038 341.44 72.2198C338.404 70.3358 336.102 68.0331 334.532 65.3118C332.962 62.4858 332.177 59.0318 332.177 54.9498C332.177 49.1931 333.694 44.3261 336.73 40.3488C339.87 36.2668 344.161 33.1791 349.604 31.0858C355.046 28.8878 361.326 27.7888 368.444 27.7888C374.828 27.7888 380.794 28.7831 386.342 30.7718C391.889 32.7605 396.233 36.0051 399.373 40.5058C402.617 45.0065 403.821 50.9725 402.984 58.4038L381.318 60.4448C381.632 57.4095 381.213 54.8451 380.062 52.7518C378.91 50.5538 377.236 48.9315 375.038 47.8848C372.84 46.7335 370.171 46.1578 367.031 46.1578C363.472 46.1578 360.698 46.8381 358.71 48.1988C356.826 49.4548 355.884 51.0771 355.884 53.0658C355.884 54.6358 356.459 55.9965 357.611 57.1478C358.867 58.1945 360.751 59.1365 363.263 59.9738C365.879 60.7065 369.229 61.5438 373.311 62.4858C376.869 63.2185 380.585 64.1605 384.458 65.3118C388.33 66.4631 391.941 68.0331 395.291 70.0218C398.64 71.9058 401.361 74.4178 403.455 77.5578C405.548 80.6978 406.595 84.6751 406.595 89.4898C406.595 94.6185 405.182 99.1191 402.356 102.992C399.53 106.864 395.395 109.847 389.953 111.941C384.51 114.034 377.811 115.081 369.857 115.081ZM454.103 115.081C446.253 115.081 439.659 113.982 434.321 111.784C429.088 109.481 424.849 106.393 421.604 102.521C418.359 98.5435 416.004 94.0428 414.539 89.0188C413.178 83.9948 412.498 78.7091 412.498 73.1618C412.498 67.1958 413.231 61.4915 414.696 56.0488C416.266 50.6061 418.621 45.7915 421.761 41.6048C425.006 37.3135 429.14 33.9641 434.164 31.5568C439.293 29.0448 445.416 27.7888 452.533 27.7888C459.65 27.7888 465.721 29.0448 470.745 31.5568C475.874 33.9641 479.956 37.3658 482.991 41.7618C486.026 46.1578 487.963 51.2341 488.8 56.9908C489.742 62.7475 489.637 68.9751 488.486 75.6738L428.355 76.6158V62.7998L469.018 62.0148L465.721 70.0218C466.349 65.2071 466.244 61.1775 465.407 57.9328C464.674 54.5835 463.261 52.0715 461.168 50.3968C459.075 48.6175 456.196 47.7278 452.533 47.7278C448.66 47.7278 445.573 48.7221 443.27 50.7108C440.967 52.6995 439.345 55.5255 438.403 59.1888C437.461 62.7475 436.99 66.9865 436.99 71.9058C436.99 80.3838 438.403 86.5591 441.229 90.4318C444.055 94.3045 448.399 96.2408 454.26 96.2408C456.772 96.2408 458.865 95.9268 460.54 95.2988C462.215 94.6708 463.575 93.7811 464.622 92.6298C465.669 91.3738 466.401 89.9085 466.82 88.2338C467.239 86.4545 467.396 84.4658 467.291 82.2678L490.527 83.5238C490.841 86.9778 490.475 90.5365 489.428 94.1998C488.486 97.8631 486.654 101.265 483.933 104.405C481.212 107.545 477.391 110.109 472.472 112.098C467.657 114.086 461.534 115.081 454.103 115.081ZM545.808 89.1758C535.237 89.1758 526.183 87.5535 518.647 84.3088C511.216 80.9595 505.511 75.9878 501.534 69.3938C497.557 62.7998 495.568 54.5835 495.568 44.7448C495.568 34.9061 497.557 26.6898 501.534 20.0958C505.511 13.5018 511.216 8.58247 518.647 5.3378C526.183 1.98848 535.237 0.313811 545.808 0.313811C556.484 0.313811 565.59 1.98848 573.126 5.3378C580.767 8.58247 586.628 13.5018 590.71 20.0958C594.792 26.6898 596.833 34.9061 596.833 44.7448C596.833 54.5835 594.792 62.7998 590.71 69.3938C586.628 75.9878 580.767 80.9595 573.126 84.3088C565.59 87.5535 556.484 89.1758 545.808 89.1758ZM545.808 73.4758C553.763 73.4758 560.252 72.4815 565.276 70.4928C570.405 68.5041 574.173 65.4165 576.58 61.2298C579.092 56.9385 580.348 51.4435 580.348 44.7448C580.348 38.0461 579.092 32.6035 576.58 28.4168C574.173 24.1255 570.405 20.9855 565.276 18.9968C560.147 17.0081 553.658 16.0138 545.808 16.0138C534.19 16.0138 525.66 18.2641 520.217 22.7648C514.774 27.2655 512.053 34.5921 512.053 44.7448C512.053 54.8975 514.774 62.2241 520.217 66.7248C525.66 71.2255 534.19 73.4758 545.808 73.4758ZM529.166 66.0968V22.9218H547.849C552.873 22.9218 557.007 23.9685 560.252 26.0618C563.601 28.1551 565.276 31.5045 565.276 36.1098C565.276 38.8311 564.334 41.2385 562.45 43.3318C560.566 45.3205 557.426 46.5765 553.03 47.0998V47.5708C557.426 47.8848 560.304 49.0885 561.665 51.1818C563.13 53.2751 564.229 55.5778 564.962 58.0898L567.317 66.0968H553.815L552.402 58.7178C551.983 56.3105 551.198 54.6358 550.047 53.6938C549 52.6471 547.116 52.1238 544.395 52.1238H541.726V66.0968H529.166ZM541.726 42.8608H545.337C546.384 42.8608 547.483 42.8085 548.634 42.7038C549.785 42.4945 550.78 42.0758 551.617 41.4478C552.454 40.7151 552.873 39.5638 552.873 37.9938C552.873 36.0051 552.454 34.6445 551.617 33.9118C550.884 33.0745 550.047 32.6035 549.105 32.4988C548.163 32.2895 547.43 32.1848 546.907 32.1848H541.726V42.8608Z" fill="#F2F2F2"/>
</svg>
